<svg width="79" height="96" viewBox="0 0 79 96" fill="none" xmlns="http://www.w3.org/2000/svg">
<path d="M73.6514 24.5715C73.564 23.5359 72.6916 22.7424 71.6521 22.7525H56.4572V16.9943C56.4572 7.60839 48.848 0 39.4629 0C30.077 0 22.4686 7.60839 22.4686 16.9943V22.7525H7.27367C6.23886 22.7564 5.37509 23.5421 5.27434 24.5715L0.0362506 84.7919C-0.201951 87.584 0.741483 90.3487 2.6385 92.4128C4.53474 94.4762 7.20963 95.65 10.0126 95.6477H68.9327C71.7357 95.65 74.4106 94.4762 76.3068 92.4128C78.2038 90.3487 79.148 87.584 78.9098 84.7919L73.6514 24.5715ZM26.4672 16.9943C26.4672 9.81703 32.2856 3.99866 39.4629 3.99866C46.6402 3.99866 52.4585 9.81703 52.4585 16.9943V22.7525H26.4672V16.9943ZM73.3515 89.7098C72.2207 90.9547 70.6142 91.66 68.9327 91.649H9.99229C8.31082 91.6498 6.70667 90.9446 5.56955 89.7059C4.43322 88.4665 3.86856 86.8069 4.01461 85.1317L9.09259 26.7512H22.4686V39.2267C19.2533 40.2162 17.2453 43.4081 17.7459 46.7351C18.2458 50.0614 21.1042 52.5215 24.4679 52.5215C27.8316 52.5215 30.6893 50.0614 31.1899 46.7351C31.6897 43.4081 29.6818 40.2162 26.4672 39.2267V26.7309H52.4585V39.2267C49.2432 40.2162 47.2353 43.4081 47.7359 46.7351C48.2357 50.0614 51.0941 52.5215 54.4579 52.5215C57.8216 52.5215 60.6792 50.0614 61.1798 46.7351C61.6797 43.4081 59.6717 40.2162 56.4572 39.2267V26.7309H69.8129L74.8909 85.1114C75.0549 86.7936 74.4949 88.4657 73.3515 89.7098ZM24.168 42.9458C24.3672 42.9723 24.5687 42.9723 24.7678 42.9458C26.2462 43.1051 27.3427 44.3937 27.2631 45.8784C27.1826 47.3638 25.9549 48.5275 24.4679 48.5275C22.9801 48.5275 21.7524 47.3638 21.6728 45.8784C21.5931 44.3937 22.6888 43.1051 24.168 42.9458ZM54.158 42.9458C54.3571 42.9723 54.5586 42.9723 54.7578 42.9458C56.2362 43.1051 57.3327 44.3937 57.253 45.8784C57.1726 47.3638 55.9449 48.5275 54.4579 48.5275C52.9701 48.5275 51.7424 47.3638 51.6627 45.8784C51.583 44.3937 52.6788 43.1051 54.158 42.9458Z" fill="black"/>
<path d="M48.056 74.984C48.056 76.0933 47.7893 77.128 47.256 78.088C46.7227 79.0267 45.912 79.784 44.824 80.36C43.736 80.936 42.4027 81.224 40.824 81.224C39.288 81.224 37.912 80.9573 36.696 80.424C35.48 79.8693 34.5093 79.1013 33.784 78.12C33.0587 77.1387 32.6427 76.008 32.536 74.728H36.44C36.5467 75.7093 36.9627 76.552 37.688 77.256C38.4347 77.96 39.4267 78.312 40.664 78.312C41.7733 78.312 42.6267 78.0133 43.224 77.416C43.8427 76.8187 44.152 76.0507 44.152 75.112C44.152 74.3013 43.928 73.64 43.48 73.128C43.032 72.5947 42.4773 72.1787 41.816 71.88C41.1547 71.5813 40.248 71.24 39.096 70.856C37.688 70.408 36.536 69.96 35.64 69.512C34.7653 69.064 34.0187 68.4133 33.4 67.56C32.7813 66.7067 32.472 65.5867 32.472 64.2C32.472 62.984 32.7707 61.9173 33.368 61C33.9653 60.0827 34.8187 59.3787 35.928 58.888C37.0373 58.376 38.3173 58.12 39.768 58.12C42.072 58.12 43.896 58.6747 45.24 59.784C46.6053 60.8933 47.384 62.344 47.576 64.136H43.64C43.4907 63.2827 43.0853 62.5573 42.424 61.96C41.784 61.3413 40.8987 61.032 39.768 61.032C38.744 61.032 37.9227 61.2987 37.304 61.832C36.6853 62.344 36.376 63.0907 36.376 64.072C36.376 64.84 36.5893 65.48 37.016 65.992C37.4427 66.4827 37.976 66.8773 38.616 67.176C39.2773 67.4533 40.1733 67.784 41.304 68.168C42.7333 68.616 43.896 69.0747 44.792 69.544C45.7093 69.992 46.4773 70.6533 47.096 71.528C47.736 72.4027 48.056 73.5547 48.056 74.984Z" fill="#29A867"/>
</svg>
