<svg width="28" height="28" viewBox="0 0 28 28" fill="none" xmlns="http://www.w3.org/2000/svg">
<path d="M14 0C21.7199 0 28 6.28009 28 14C28 21.7199 21.7199 28 14 28C6.28009 28 0 21.7199 0 14C0 6.28009 6.28009 0 14 0Z" fill="#F44336"/>
<path d="M8.84434 17.5059C8.38825 17.9622 8.38825 18.6994 8.84434 19.1557C9.07185 19.3832 9.37049 19.4975 9.66935 19.4975C9.96799 19.4975 10.2666 19.3832 10.4941 19.1557L13.9999 15.6497L17.5057 19.1557C17.7332 19.3832 18.0318 19.4975 18.3305 19.4975C18.6293 19.4975 18.928 19.3832 19.1555 19.1557C19.6116 18.6994 19.6116 17.9622 19.1555 17.5059L15.6495 14.0001L19.1555 10.4943C19.6116 10.038 19.6116 9.3008 19.1555 8.84451C18.6992 8.38842 17.962 8.38842 17.5057 8.84451L13.9999 12.3505L10.4941 8.84451C10.0378 8.38842 9.30064 8.38842 8.84434 8.84451C8.38825 9.3008 8.38825 10.038 8.84434 10.4943L12.3503 14.0001L8.84434 17.5059Z" fill="#FAFAFA"/>
</svg>
