<svg width="150" height="150" viewBox="0 0 150 150" fill="none" xmlns="http://www.w3.org/2000/svg">
<path d="M104.292 32.7712C102.752 32.7712 101.504 31.5231 101.504 29.9836V21.1562C101.504 12.5646 94.5146 5.5752 85.923 5.5752H64.0775C55.4859 5.5752 48.4966 12.5646 48.4966 21.1562V29.9836C48.4966 31.5234 47.2485 32.7712 45.709 32.7712C44.1691 32.7712 42.9214 31.5231 42.9214 29.9836V21.1562C42.9211 9.49101 52.4118 0 64.0772 0H85.9227C97.5885 0 107.079 9.49101 107.079 21.1562V29.9836C107.079 31.5231 105.831 32.7712 104.292 32.7712Z" fill="url(#paint0_linear)"/>
<path d="M128.301 16.3866L128.16 16.4555C123.392 18.7819 117.814 18.7553 113.069 16.3828C108.263 14.0376 102.647 14.0376 97.8447 16.3828L97.8409 16.3866C93.0351 18.7318 87.4186 18.7318 82.6127 16.3866L82.6089 16.3828C77.8065 14.0376 72.1903 14.0376 67.3845 16.3828L67.3807 16.3866C62.5783 18.7318 56.9583 18.7318 52.1562 16.3866H52.1524C49.7513 15.2121 47.1456 14.625 44.5402 14.625C41.9073 14.625 39.2741 15.2247 36.848 16.4241C32.0826 18.7802 26.477 18.7184 21.6995 16.3869C18.1827 14.6704 14.0835 17.2312 14.0835 21.1444V112.271C14.0835 118.56 19.182 123.659 25.4712 123.659H124.529C130.818 123.659 135.917 118.56 135.917 112.271V21.1444C135.917 17.2312 131.818 14.6704 128.301 16.3866ZM45.9128 34.5519C43.6748 34.5519 41.8607 32.7378 41.8607 30.4998C41.8607 28.2618 43.6748 26.4478 45.9128 26.4478C48.1508 26.4478 49.9648 28.2618 49.9648 30.4998C49.9648 32.7378 48.1508 34.5519 45.9128 34.5519ZM104.088 34.5519C101.85 34.5519 100.036 32.7378 100.036 30.4998C100.036 28.2618 101.85 26.4478 104.088 26.4478C106.326 26.4478 108.14 28.2618 108.14 30.4998C108.14 32.7378 106.326 34.5519 104.088 34.5519Z" fill="url(#paint1_linear)"/>
<path d="M128.301 42.7281L128.16 42.7969C123.392 45.1234 117.814 45.0967 113.069 42.7242C108.263 40.379 102.647 40.379 97.8447 42.7242L97.8409 42.7281C93.0351 45.0733 87.4186 45.0733 82.6127 42.7281L82.6089 42.7242C77.8065 40.379 72.1903 40.379 67.3845 42.7242L67.3807 42.7281C62.5783 45.0733 56.9583 45.0733 52.1562 42.7281H52.1524C49.7513 41.5535 47.1456 40.9661 44.5402 40.9661C41.9073 40.9661 39.2741 41.5658 36.848 42.7653C32.0826 45.1213 26.477 45.0595 21.6995 42.7281C18.1827 41.0115 14.0835 43.5724 14.0835 47.4856V138.612C14.0835 144.901 19.182 150 25.4712 150H124.529C130.818 150 135.917 144.901 135.917 138.612V47.4856C135.917 43.5724 131.818 41.0115 128.301 42.7281ZM45.9128 60.893C43.6748 60.893 41.8607 59.0789 41.8607 56.8409C41.8607 54.603 43.6748 52.7889 45.9128 52.7889C48.1508 52.7889 49.9648 54.603 49.9648 56.8409C49.9648 59.0789 48.1508 60.893 45.9128 60.893ZM104.088 60.893C101.85 60.893 100.036 59.0789 100.036 56.8409C100.036 54.603 101.85 52.7889 104.088 52.7889C106.326 52.7889 108.14 54.603 108.14 56.8409C108.14 59.0789 106.326 60.893 104.088 60.893Z" fill="url(#paint2_linear)"/>
<path d="M135.917 138.612V84.8617L108.128 57.073C108.007 59.202 106.247 60.8927 104.088 60.8927C103.105 60.8927 102.205 60.5429 101.504 59.9617V77.3939C101.504 85.9257 97.4471 93.5236 91.1661 98.3746L49.9164 57.4322C49.6296 59.3889 47.9488 60.8927 45.9124 60.8927C44.7259 60.8927 43.6621 60.3797 42.9209 59.567V77.3936C42.9209 86.6318 46.8514 94.965 53.1218 100.823L102.298 150H124.529C130.818 150 135.917 144.902 135.917 138.612Z" fill="url(#paint3_linear)"/>
<path d="M75.0001 109.473C57.3115 109.473 42.9209 95.0824 42.9209 77.3938V56.8582C42.9209 55.3183 44.1689 54.0706 45.7085 54.0706C47.248 54.0706 48.4961 55.3186 48.4961 56.8582V77.3938C48.4961 92.0077 60.3856 103.897 74.9998 103.897C89.614 103.897 101.504 92.0074 101.504 77.3938V56.8582C101.504 55.3183 102.752 54.0706 104.291 54.0706C105.831 54.0706 107.079 55.3186 107.079 56.8582V77.3938C107.079 95.0824 92.6884 109.473 75.0001 109.473Z" fill="url(#paint4_linear)"/>
<path d="M14.0835 108.115V138.612C14.0835 144.902 19.182 150 25.4712 150H124.529C130.818 150 135.917 144.901 135.917 138.612V108.115H14.0835Z" fill="url(#paint5_linear)"/>
<defs>
<linearGradient id="paint0_linear" x1="74.9985" y1="3.77614" x2="74.9985" y2="35.6643" gradientUnits="userSpaceOnUse">
<stop stop-color="#FFB92D"/>
<stop offset="1" stop-color="#F59500"/>
</linearGradient>
<linearGradient id="paint1_linear" x1="74.9985" y1="19.9058" x2="74.9985" y2="63.8401" gradientUnits="userSpaceOnUse">
<stop stop-color="#61DB99"/>
<stop offset="1" stop-color="#009E74"/>
</linearGradient>
<linearGradient id="paint2_linear" x1="76.7428" y1="95.4837" x2="164.623" y2="95.4837" gradientUnits="userSpaceOnUse">
<stop stop-color="#A7F3CE"/>
<stop offset="1" stop-color="#61DB99"/>
</linearGradient>
<linearGradient id="paint3_linear" x1="131.279" y1="129.618" x2="25.117" y2="23.4588" gradientUnits="userSpaceOnUse">
<stop stop-color="#61DB99" stop-opacity="0"/>
<stop offset="1" stop-color="#009E74"/>
</linearGradient>
<linearGradient id="paint4_linear" x1="74.9984" y1="54.0727" x2="74.9984" y2="109.474" gradientUnits="userSpaceOnUse">
<stop stop-color="#FFB92D"/>
<stop offset="1" stop-color="#F59500"/>
</linearGradient>
<linearGradient id="paint5_linear" x1="128.553" y1="117.71" x2="-2.72667" y2="143.089" gradientUnits="userSpaceOnUse">
<stop stop-color="#61DB99" stop-opacity="0"/>
<stop offset="1" stop-color="#009E74"/>
</linearGradient>
</defs>
</svg>
